<svg xmlns="http://www.w3.org/2000/svg" viewBox="0 0 120 120" fill="#272324"><circle cx="38.67" cy="65.81" r="0.90"></circle><circle cx="39.02" cy="65.86" r="0.98"></circle><circle cx="39.37" cy="66.04" r="1.06"></circle><circle cx="39.67" cy="66.36" r="1.14"></circle><circle cx="39.87" cy="66.81" r="1.22"></circle><circle cx="39.91" cy="67.35" r="1.30"></circle><circle cx="39.75" cy="67.92" r="1.37"></circle><circle cx="39.37" cy="68.47" r="1.45"></circle><circle cx="38.77" cy="68.90" r="1.53"></circle><circle cx="37.99" cy="69.13" r="1.61"></circle><circle cx="37.08" cy="69.08" r="1.69"></circle><circle cx="36.15" cy="68.69" r="1.77"></circle><circle cx="35.32" cy="67.94" r="1.85"></circle><circle cx="34.73" cy="66.85" r="1.93"></circle><circle cx="34.52" cy="65.49" r="2.01"></circle><circle cx="34.80" cy="63.99" r="2.09"></circle><circle cx="35.65" cy="62.52" r="2.17"></circle><circle cx="37.09" cy="61.30" r="2.24"></circle><circle cx="39.04" cy="60.55" r="2.32"></circle><circle cx="41.35" cy="60.49" r="2.40"></circle><circle cx="43.80" cy="61.29" r="2.48"></circle><circle cx="46.06" cy="63.02" r="2.56"></circle><circle cx="47.79" cy="65.68" r="2.64"></circle><circle cx="48.61" cy="69.10" r="2.72"></circle><circle cx="48.21" cy="72.98" r="2.80"></circle><circle cx="46.35" cy="76.89" r="2.88"></circle><circle cx="42.96" cy="80.29" r="2.96"></circle><circle cx="38.15" cy="82.60" r="3.03"></circle><circle cx="32.27" cy="83.23" r="3.11"></circle><circle cx="25.88" cy="81.72" r="3.19"></circle><circle cx="19.75" cy="77.77" r="3.27"></circle><circle cx="14.81" cy="71.37" r="3.35"></circle><circle cx="12.00" cy="62.84" r="3.43"></circle><circle cx="12.22" cy="52.88" r="3.51"></circle><circle cx="16.13" cy="42.54" r="3.59"></circle><circle cx="24.05" cy="33.18" r="3.67"></circle><circle cx="35.81" cy="26.31" r="3.75"></circle><circle cx="50.65" cy="23.47" r="3.83"></circle><circle cx="67.23" cy="25.99" r="3.90"></circle><circle cx="83.64" cy="34.77" r="3.98"></circle><circle cx="97.56" cy="50.03" r="4.06"></circle><circle cx="106.48" cy="71.14" r="4.14"></circle><circle cx="108.00" cy="96.53" r="4.22"></circle></svg>