<svg xmlns="http://www.w3.org/2000/svg" viewBox="0 0 120 120" fill="#272324"><circle cx="61.20" cy="55.53" r="0.80"></circle><circle cx="63.72" cy="56.10" r="0.96"></circle><circle cx="65.98" cy="58.09" r="1.13"></circle><circle cx="67.19" cy="61.39" r="1.29"></circle><circle cx="66.57" cy="65.44" r="1.45"></circle><circle cx="63.69" cy="69.23" r="1.61"></circle><circle cx="58.61" cy="71.51" r="1.78"></circle><circle cx="52.15" cy="70.99" r="1.94"></circle><circle cx="45.83" cy="66.86" r="2.10"></circle><circle cx="41.67" cy="59.09" r="2.26"></circle><circle cx="41.76" cy="48.83" r="2.42"></circle><circle cx="47.58" cy="38.39" r="2.59"></circle><circle cx="59.38" cy="30.95" r="2.75"></circle><circle cx="75.60" cy="29.94" r="2.91"></circle><circle cx="92.75" cy="37.97" r="3.08"></circle><circle cx="105.80" cy="55.77" r="3.24"></circle><circle cx="64.62" cy="59.76" r="0.80"></circle><circle cx="64.86" cy="62.33" r="0.96"></circle><circle cx="63.67" cy="65.10" r="1.13"></circle><circle cx="60.90" cy="67.26" r="1.29"></circle><circle cx="56.86" cy="67.93" r="1.45"></circle><circle cx="52.36" cy="66.36" r="1.61"></circle><circle cx="48.63" cy="62.23" r="1.78"></circle><circle cx="47.12" cy="55.93" r="1.94"></circle><circle cx="49.10" cy="48.64" r="2.10"></circle><circle cx="55.20" cy="42.29" r="2.26"></circle><circle cx="64.98" cy="39.20" r="2.42"></circle><circle cx="76.72" cy="41.51" r="2.59"></circle><circle cx="87.43" cy="50.43" r="2.75"></circle><circle cx="93.41" cy="65.54" r="2.91"></circle><circle cx="91.07" cy="84.34" r="3.08"></circle><circle cx="78.18" cy="102.25" r="3.24"></circle><circle cx="61.66" cy="64.32" r="0.80"></circle><circle cx="59.28" cy="65.34" r="0.96"></circle><circle cx="56.28" cy="65.06" r="1.13"></circle><circle cx="53.37" cy="63.10" r="1.29"></circle><circle cx="51.49" cy="59.47" r="1.45"></circle><circle cx="51.59" cy="54.70" r="1.61"></circle><circle cx="54.36" cy="49.87" r="1.78"></circle><circle cx="59.89" cy="46.49" r="1.94"></circle><circle cx="67.44" cy="46.12" r="2.10"></circle><circle cx="75.36" cy="49.96" r="2.26"></circle><circle cx="81.32" cy="58.31" r="2.42"></circle><circle cx="82.75" cy="70.19" r="2.59"></circle><circle cx="77.58" cy="83.13" r="2.75"></circle><circle cx="65.05" cy="93.48" r="2.91"></circle><circle cx="46.46" cy="97.07" r="3.08"></circle><circle cx="25.43" cy="90.35" r="3.24"></circle><circle cx="56.41" cy="62.91" r="0.80"></circle><circle cx="54.70" cy="60.97" r="0.96"></circle><circle cx="54.04" cy="58.03" r="1.13"></circle><circle cx="55.00" cy="54.65" r="1.29"></circle><circle cx="57.88" cy="51.74" r="1.45"></circle><circle cx="62.45" cy="50.36" r="1.61"></circle><circle cx="67.89" cy="51.51" r="1.78"></circle><circle cx="72.81" cy="55.72" r="1.94"></circle><circle cx="75.50" cy="62.78" r="2.10"></circle><circle cx="74.29" cy="71.51" r="2.26"></circle><circle cx="68.19" cy="79.76" r="2.42"></circle><circle cx="57.34" cy="84.78" r="2.59"></circle><circle cx="43.43" cy="83.86" r="2.75"></circle><circle cx="29.72" cy="75.15" r="2.91"></circle><circle cx="20.56" cy="58.57" r="3.08"></circle><circle cx="20.45" cy="36.50" r="3.24"></circle><circle cx="56.12" cy="57.48" r="0.80"></circle><circle cx="57.44" cy="55.26" r="0.96"></circle><circle cx="60.03" cy="53.72" r="1.13"></circle><circle cx="63.54" cy="53.59" r="1.29"></circle><circle cx="67.20" cy="55.43" r="1.45"></circle><circle cx="69.92" cy="59.35" r="1.61"></circle><circle cx="70.51" cy="64.88" r="1.78"></circle><circle cx="68.03" cy="70.86" r="1.94"></circle><circle cx="62.14" cy="75.60" r="2.10"></circle><circle cx="53.47" cy="77.15" r="2.26"></circle><circle cx="43.74" cy="73.90" r="2.42"></circle><circle cx="35.61" cy="65.13" r="2.59"></circle><circle cx="32.18" cy="51.62" r="2.75"></circle><circle cx="36.23" cy="35.88" r="2.91"></circle><circle cx="49.17" cy="22.05" r="3.08"></circle><circle cx="70.13" cy="15.13" r="3.24"></circle></svg>