<svg xmlns="http://www.w3.org/2000/svg" viewBox="0 0 120 120" fill="none"><path d="M40.19,73.02 L40.29,73.02 L40.40,73.03 L40.51,73.06 L40.62,73.09 L40.73,73.14 L40.84,73.20 L40.94,73.27 L41.04,73.36 L41.13,73.46 L41.22,73.57 L41.30,73.69 L41.36,73.82 L41.41,73.97 L41.45,74.12 L41.48,74.28 L41.49,74.45 L41.48,74.62 L41.45,74.80 L41.41,74.97 L41.35,75.15 L41.26,75.33 L41.16,75.50 L41.03,75.67 L40.89,75.82 L40.72,75.97 L40.54,76.10 L40.34,76.22 L40.12,76.32 L39.88,76.40 L39.63,76.46 L39.37,76.49 L39.10,76.50 L38.81,76.48 L38.53,76.43 L38.24,76.35 L37.95,76.24 L37.67,76.09 L37.39,75.91 L37.13,75.70 L36.88,75.46 L36.65,75.18 L36.44,74.87 L36.26,74.54 L36.10,74.17 L35.98,73.78 L35.90,73.37 L35.86,72.94 L35.86,72.50 L35.91,72.04 L36.00,71.57 L36.15,71.11 L36.35,70.64 L36.60,70.19 L36.90,69.75 L37.26,69.32 L37.67,68.93 L38.13,68.56 L38.64,68.24 L39.20,67.96 L39.80,67.72 L40.44,67.55 L41.11,67.43 L41.82,67.38 L42.55,67.41 L43.29,67.51 L44.04,67.68 L44.80,67.94 L45.55,68.29 L46.28,68.72 L46.98,69.24 L47.66,69.84 L48.28,70.53 L48.86,71.30 L49.36,72.14 L49.80,73.07 L50.15,74.06 L50.40,75.11 L50.56,76.22 L50.60,77.37 L50.53,78.56 L50.34,79.77 L50.01,80.99 L49.55,82.21 L48.95,83.42 L48.21,84.59 L47.34,85.72 L46.32,86.78 L45.17,87.77 L43.89,88.67 L42.48,89.46 L40.95,90.12 L39.31,90.65 L37.58,91.02 L35.77,91.22 L33.88,91.24 L31.95,91.06 L29.99,90.68 L28.01,90.09 L26.04,89.28 L24.10,88.25 L22.22,86.99 L20.42,85.51 L18.73,83.80 L17.17,81.87 L15.77,79.73 L14.55,77.40 L13.54,74.87 L12.76,72.18 L12.24,69.33 L12.00,66.36 L12.06,63.29 L12.44,60.14 L13.15,56.95 L14.20,53.76 L15.62,50.58 L17.40,47.47 L19.54,44.46 L22.05,41.60 L24.92,38.92 L28.14,36.46 L31.69,34.27 L35.57,32.40 L39.73,30.87 L44.17,29.73 L48.83,29.01 L53.69,28.76 L58.70,29.01 L63.82,29.77 L68.99,31.08 L74.16,32.96 L79.27,35.42 L84.26,38.47 L89.07,42.11 L93.63,46.34 L97.86,51.15 L101.72,56.52 L105.12,62.43 L108.00,68.84" stroke="#272324" stroke-width="3.2" stroke-linecap="round"></path></svg>