<svg xmlns="http://www.w3.org/2000/svg" viewBox="0 0 120 120" fill="none" stroke="#272324" stroke-width="3.2" stroke-linecap="round"><path d="M79.42,43.95 L79.69,43.95 L79.97,43.98 L80.25,44.04 L80.53,44.13 L80.81,44.26 L81.08,44.41 L81.35,44.60 L81.60,44.82 L81.84,45.07 L82.05,45.35 L82.25,45.66 L82.41,46.00 L82.55,46.37 L82.65,46.75 L82.72,47.16 L82.74,47.59 L82.72,48.03 L82.65,48.48 L82.54,48.93 L82.38,49.39 L82.17,49.84 L81.90,50.28 L81.58,50.70 L81.21,51.10 L80.79,51.48 L80.32,51.82 L79.80,52.12 L79.24,52.37 L78.64,52.58 L78.00,52.72 L77.33,52.81 L76.63,52.83 L75.92,52.77 L75.19,52.65 L74.45,52.44 L73.72,52.15 L72.99,51.78 L72.29,51.33 L71.61,50.79 L70.98,50.17 L70.39,49.46 L69.85,48.68 L69.39,47.82 L69.00,46.89 L68.69,45.90 L68.48,44.85 L68.38,43.75 L68.38,42.61 L68.50,41.45 L68.74,40.26 L69.11,39.07 L69.62,37.89 L70.26,36.72 L71.03,35.60 L71.94,34.52 L72.99,33.51 L74.17,32.58 L75.47,31.75 L76.89,31.03 L78.42,30.44 L80.06,29.99 L81.78,29.69 L83.58,29.57 L85.44,29.63 L87.34,29.88 L89.26,30.33 L91.19,31.00 L93.09,31.88 L94.96,32.97 L96.76,34.29 L98.48,35.83 L100.08,37.59 L101.54,39.55 L102.83,41.72 L103.94,44.07 L104.83,46.60 L105.49,49.29 L105.88,52.12 L106.00,55.06 L105.82,58.09 L105.31,61.17 L104.48,64.29 L103.31,67.40 L101.78,70.47 L99.90,73.47 L97.67,76.35 L95.07,79.07 L92.13,81.60 L88.86,83.89 L85.26,85.90 L81.36,87.59 L77.19,88.93 L72.77,89.87 L68.14,90.38 L63.34,90.43 L58.41,89.98 L53.39,89.02 L48.34,87.51 L43.32,85.45 L38.38,82.81 L33.59,79.60 L29.00,75.81 L24.68,71.45 L20.69,66.54 L17.11,61.08 L14.00,55.12"></path><path d="M40.58,76.05 L40.31,76.05 L40.03,76.02 L39.75,75.96 L39.47,75.87 L39.19,75.74 L38.92,75.59 L38.65,75.40 L38.40,75.18 L38.16,74.93 L37.95,74.65 L37.75,74.34 L37.59,74.00 L37.45,73.63 L37.35,73.25 L37.28,72.84 L37.26,72.41 L37.28,71.97 L37.35,71.52 L37.46,71.07 L37.62,70.61 L37.83,70.16 L38.10,69.72 L38.42,69.30 L38.79,68.90 L39.21,68.52 L39.68,68.18 L40.20,67.88 L40.76,67.63 L41.36,67.42 L42.00,67.28 L42.67,67.19 L43.37,67.17 L44.08,67.23 L44.81,67.35 L45.55,67.56 L46.28,67.85 L47.01,68.22 L47.71,68.67 L48.39,69.21 L49.02,69.83 L49.61,70.54 L50.15,71.32 L50.61,72.18 L51.00,73.11 L51.31,74.10 L51.52,75.15 L51.62,76.25 L51.62,77.39 L51.50,78.55 L51.26,79.74 L50.89,80.93 L50.38,82.11 L49.74,83.28 L48.97,84.40 L48.06,85.48 L47.01,86.49 L45.83,87.42 L44.53,88.25 L43.11,88.97 L41.58,89.56 L39.94,90.01 L38.22,90.31 L36.42,90.43 L34.56,90.37 L32.66,90.12 L30.74,89.67 L28.81,89.00 L26.91,88.12 L25.04,87.03 L23.24,85.71 L21.52,84.17 L19.92,82.41 L18.46,80.45 L17.17,78.28 L16.06,75.93 L15.17,73.40 L14.51,70.71 L14.12,67.88 L14.00,64.94 L14.18,61.91 L14.69,58.83 L15.52,55.71 L16.69,52.60 L18.22,49.53 L20.10,46.53 L22.33,43.65 L24.93,40.93 L27.87,38.40 L31.14,36.11 L34.74,34.10 L38.64,32.41 L42.81,31.07 L47.23,30.13 L51.86,29.62 L56.66,29.57 L61.59,30.02 L66.61,30.98 L71.66,32.49 L76.68,34.55 L81.62,37.19 L86.41,40.40 L91.00,44.19 L95.32,48.55 L99.31,53.46 L102.89,58.92 L106.00,64.88"></path></svg>