<svg xmlns="http://www.w3.org/2000/svg" viewBox="0 0 120 120" fill="#272324"><circle cx="60.00" cy="60.00" r="0.70"></circle><circle cx="57.80" cy="62.01" r="0.71"></circle><circle cx="60.37" cy="55.81" r="0.72"></circle><circle cx="63.14" cy="64.09" r="0.73"></circle><circle cx="54.14" cy="58.96" r="0.74"></circle><circle cx="65.62" cy="56.43" r="0.75"></circle><circle cx="58.11" cy="67.04" r="0.76"></circle><circle cx="56.37" cy="53.01" r="0.76"></circle><circle cx="67.91" cy="62.89" r="0.77"></circle><circle cx="51.75" cy="63.41" r="0.78"></circle><circle cx="63.99" cy="51.47" r="0.79"></circle><circle cx="62.95" cy="69.42" r="0.80"></circle><circle cx="51.08" cy="54.83" r="0.81"></circle><circle cx="70.48" cy="57.70" r="0.82"></circle><circle cx="53.59" cy="69.11" r="0.83"></circle><circle cx="58.52" cy="48.57" r="0.84"></circle><circle cx="69.10" cy="67.67" r="0.85"></circle><circle cx="47.74" cy="60.51" r="0.86"></circle><circle cx="68.95" cy="51.09" r="0.87"></circle><circle cx="59.40" cy="72.96" r="0.88"></circle><circle cx="51.47" cy="49.78" r="0.88"></circle><circle cx="73.52" cy="61.82" r="0.89"></circle><circle cx="48.54" cy="67.97" r="0.90"></circle><circle cx="63.13" cy="46.07" r="0.91"></circle><circle cx="67.25" cy="72.65" r="0.92"></circle><circle cx="45.82" cy="55.47" r="0.93"></circle><circle cx="73.78" cy="53.64" r="0.94"></circle><circle cx="54.03" cy="74.27" r="0.95"></circle><circle cx="54.67" cy="45.18" r="0.96"></circle><circle cx="74.19" cy="67.46" r="0.97"></circle><circle cx="44.23" cy="64.15" r="0.98"></circle><circle cx="68.97" cy="46.06" r="0.99"></circle><circle cx="62.85" cy="76.60" r="1.00"></circle><circle cx="46.48" cy="49.53" r="1.00"></circle><circle cx="77.30" cy="58.57" r="1.01"></circle><circle cx="48.04" cy="72.93" r="1.02"></circle><circle cx="60.09" cy="42.14" r="1.03"></circle><circle cx="72.16" cy="73.41" r="1.04"></circle><circle cx="41.73" cy="58.30" r="1.05"></circle><circle cx="74.81" cy="48.76" r="1.06"></circle><circle cx="56.63" cy="78.52" r="1.07"></circle><circle cx="49.85" cy="43.87" r="1.08"></circle><circle cx="78.61" cy="65.10" r="1.09"></circle><circle cx="42.63" cy="68.91" r="1.10"></circle><circle cx="66.87" cy="41.49" r="1.11"></circle><circle cx="67.53" cy="78.50" r="1.12"></circle><circle cx="41.76" cy="51.35" r="1.12"></circle><circle cx="79.50" cy="53.99" r="1.13"></circle><circle cx="49.57" cy="77.79" r="1.14"></circle><circle cx="55.63" cy="39.63" r="1.15"></circle><circle cx="77.16" cy="72.19" r="1.16"></circle><circle cx="38.90" cy="62.62" r="1.17"></circle><circle cx="73.92" cy="43.66" r="1.18"></circle><circle cx="60.79" cy="81.66" r="1.19"></circle><circle cx="44.65" cy="44.42" r="1.20"></circle><circle cx="82.05" cy="61.13" r="1.21"></circle><circle cx="42.82" cy="74.19" r="1.22"></circle><circle cx="63.11" cy="37.74" r="1.23"></circle><circle cx="72.85" cy="78.68" r="1.24"></circle><circle cx="37.72" cy="54.87" r="1.24"></circle><circle cx="80.07" cy="48.64" r="1.25"></circle><circle cx="52.82" cy="82.11" r="1.26"></circle><circle cx="50.28" cy="38.67" r="1.27"></circle><circle cx="81.75" cy="69.23" r="1.28"></circle><circle cx="37.55" cy="67.94" r="1.29"></circle><circle cx="71.27" cy="38.81" r="1.30"></circle><circle cx="66.04" cy="83.42" r="1.31"></circle><circle cx="39.57" cy="46.72" r="1.32"></circle><circle cx="84.21" cy="55.97" r="1.33"></circle><circle cx="44.76" cy="79.47" r="1.34"></circle><circle cx="58.07" cy="35.17" r="1.35"></circle><circle cx="78.32" cy="77.13" r="1.36"></circle><circle cx="34.74" cy="59.75" r="1.36"></circle><circle cx="78.93" cy="43.01" r="1.37"></circle><circle cx="57.50" cy="85.49" r="1.38"></circle><circle cx="44.52" cy="39.38" r="1.39"></circle><circle cx="85.51" cy="64.78" r="1.40"></circle><circle cx="37.82" cy="73.80" r="1.41"></circle><circle cx="67.08" cy="34.68" r="1.42"></circle><circle cx="71.96" cy="83.60" r="1.43"></circle><circle cx="35.08" cy="50.61" r="1.44"></circle><circle cx="84.87" cy="50.03" r="1.45"></circle><circle cx="48.33" cy="84.30" r="1.46"></circle><circle cx="52.15" cy="34.04" r="1.47"></circle><circle cx="83.47" cy="73.92" r="1.48"></circle><circle cx="33.14" cy="65.62" r="1.48"></circle><circle cx="76.10" cy="37.58" r="1.49"></circle><circle cx="63.29" cy="87.57" r="1.50"></circle><circle cx="38.83" cy="41.79" r="1.51"></circle><circle cx="88.07" cy="59.12" r="1.52"></circle><circle cx="39.78" cy="79.72" r="1.53"></circle><circle cx="61.60" cy="31.65" r="1.54"></circle><circle cx="78.07" cy="82.11" r="1.55"></circle><circle cx="31.59" cy="55.88" r="1.56"></circle><circle cx="83.86" cy="43.76" r="1.57"></circle><circle cx="53.34" cy="88.24" r="1.58"></circle><circle cx="45.76" cy="34.55" r="1.59"></circle><circle cx="87.84" cy="69.19" r="1.60"></circle><circle cx="33.12" cy="72.09" r="1.60"></circle><circle cx="71.71" cy="32.79" r="1.61"></circle><circle cx="69.79" cy="88.11" r="1.62"></circle><circle cx="33.66" cy="45.81" r="1.63"></circle><circle cx="89.15" cy="52.63" r="1.64"></circle><circle cx="43.40" cy="85.24" r="1.65"></circle><circle cx="55.16" cy="30.03" r="1.66"></circle><circle cx="83.93" cy="78.92" r="1.67"></circle><circle cx="29.43" cy="62.22" r="1.68"></circle><circle cx="81.14" cy="37.61" r="1.69"></circle><circle cx="59.53" cy="90.93" r="1.70"></circle><circle cx="39.35" cy="36.77" r="1.71"></circle><circle cx="91.06" cy="63.20" r="1.72"></circle><circle cx="34.83" cy="78.70" r="1.72"></circle><circle cx="65.96" cy="29.06" r="1.73"></circle><circle cx="76.58" cy="86.95" r="1.74"></circle><circle cx="29.43" cy="51.29" r="1.75"></circle><circle cx="88.55" cy="45.72" r="1.76"></circle><circle cx="48.55" cy="89.95" r="1.77"></circle><circle cx="48.17" cy="30.05" r="1.78"></circle><circle cx="89.08" cy="74.15" r="1.79"></circle><circle cx="28.87" cy="69.25" r="1.80"></circle><circle cx="76.78" cy="32.04" r="1.81"></circle><circle cx="66.55" cy="92.08" r="1.82"></circle><circle cx="33.39" cy="40.68" r="1.83"></circle><circle cx="92.80" cy="56.25" r="1.84"></circle><circle cx="38.26" cy="85.02" r="1.84"></circle><circle cx="59.13" cy="26.73" r="1.85"></circle><circle cx="83.21" cy="84.04" r="1.86"></circle><circle cx="26.52" cy="57.94" r="1.87"></circle><circle cx="86.18" cy="38.82" r="1.88"></circle><circle cx="54.98" cy="93.44" r="1.89"></circle><circle cx="41.04" cy="31.85" r="1.90"></circle><circle cx="93.12" cy="67.98" r="1.91"></circle><circle cx="30.07" cy="76.55" r="1.92"></circle><circle cx="70.93" cy="27.46" r="1.93"></circle><circle cx="73.98" cy="91.50" r="1.94"></circle><circle cx="28.30" cy="46.16" r="1.95"></circle><circle cx="92.84" cy="48.75" r="1.96"></circle><circle cx="43.32" cy="90.59" r="1.96"></circle><circle cx="51.60" cy="26.05" r="1.97"></circle><circle cx="89.23" cy="79.43" r="1.98"></circle><circle cx="25.20" cy="65.44" r="1.99"></circle><circle cx="82.07" cy="32.39" r="2.00"></circle><circle cx="62.39" cy="95.39" r="2.01"></circle><circle cx="34.24" cy="35.43" r="2.02"></circle><circle cx="95.71" cy="60.72" r="2.03"></circle><circle cx="33.09" cy="83.68" r="2.04"></circle><circle cx="63.86" cy="24.24" r="2.05"></circle><circle cx="81.38" cy="89.08" r="2.06"></circle><circle cx="24.47" cy="52.98" r="2.07"></circle><circle cx="91.05" cy="41.12" r="2.08"></circle><circle cx="49.83" cy="95.01" r="2.08"></circle><circle cx="43.80" cy="27.20" r="2.09"></circle><circle cx="94.21" cy="73.28" r="2.10"></circle><circle cx="25.69" cy="73.36" r="2.11"></circle><circle cx="76.33" cy="26.86" r="2.12"></circle><circle cx="70.38" cy="95.58" r="2.13"></circle><circle cx="28.21" cy="40.71" r="2.14"></circle><circle cx="96.58" cy="52.73" r="2.15"></circle><circle cx="37.87" cy="90.17" r="2.16"></circle><circle cx="55.93" cy="22.69" r="2.17"></circle><circle cx="88.30" cy="84.84" r="2.18"></circle><circle cx="22.24" cy="60.80" r="2.19"></circle><circle cx="87.39" cy="33.82" r="2.20"></circle><circle cx="57.48" cy="97.92" r="2.20"></circle><circle cx="36.17" cy="30.24" r="2.21"></circle><circle cx="97.79" cy="65.86" r="2.22"></circle><circle cx="28.08" cy="81.26" r="2.23"></circle><circle cx="69.20" cy="22.65" r="2.24"></circle><circle cx="78.50" cy="93.86" r="2.25"></circle><circle cx="23.38" cy="47.50" r="2.26"></circle><circle cx="95.56" cy="44.44" r="2.27"></circle><circle cx="44.25" cy="95.60" r="2.28"></circle><circle cx="47.53" cy="23.00" r="2.29"></circle><circle cx="94.28" cy="78.91" r="2.30"></circle><circle cx="21.84" cy="69.24" r="2.31"></circle><circle cx="81.96" cy="27.31" r="2.32"></circle><circle cx="65.90" cy="99.05" r="2.32"></circle><circle cx="29.19" cy="35.12" r="2.33"></circle><circle cx="99.64" cy="57.52" r="2.34"></circle><circle cx="32.37" cy="88.68" r="2.35"></circle><circle cx="61.00" cy="20.07" r="2.36"></circle><circle cx="86.30" cy="90.20" r="2.37"></circle><circle cx="20.09" cy="55.48" r="2.38"></circle><circle cx="92.56" cy="36.31" r="2.39"></circle><circle cx="51.97" cy="99.57" r="2.40"></circle><circle cx="39.13" cy="25.30" r="2.41"></circle><circle cx="98.93" cy="71.52" r="2.42"></circle><circle cx="23.41" cy="77.85" r="2.43"></circle><circle cx="74.96" cy="22.02" r="2.44"></circle><circle cx="74.66" cy="98.21" r="2.44"></circle><circle cx="23.28" cy="41.68" r="2.45"></circle><circle cx="99.55" cy="48.68" r="2.46"></circle><circle cx="38.43" cy="95.16" r="2.47"></circle><circle cx="52.14" cy="19.40" r="2.48"></circle><circle cx="93.31" cy="84.69" r="2.49"></circle><circle cx="18.65" cy="64.30" r="2.50"></circle><circle cx="87.65" cy="28.82" r="2.51"></circle><circle cx="60.67" cy="101.78" r="2.52"></circle><circle cx="31.21" cy="29.57" r="2.53"></circle><circle cx="101.89" cy="63.00" r="2.54"></circle><circle cx="27.01" cy="86.15" r="2.55"></circle><circle cx="66.68" cy="18.33" r="2.56"></circle><circle cx="83.28" cy="95.33" r="2.56"></circle><circle cx="18.87" cy="49.65" r="2.57"></circle><circle cx="97.41" cy="39.80" r="2.58"></circle><circle cx="46.03" cy="100.27" r="2.59"></circle><circle cx="43.06" cy="20.77" r="2.60"></circle><circle cx="99.08" cy="77.53" r="2.61"></circle><circle cx="19.25" cy="73.51" r="2.62"></circle><circle cx="80.98" cy="22.42" r="2.63"></circle><circle cx="69.94" cy="101.98" r="2.64"></circle><circle cx="24.23" cy="35.70" r="2.65"></circle><circle cx="102.89" cy="53.74" r="2.66"></circle><circle cx="32.54" cy="93.67" r="2.67"></circle><circle cx="57.50" cy="16.52" r="2.68"></circle><circle cx="91.28" cy="90.44" r="2.68"></circle><circle cx="16.27" cy="58.68" r="2.69"></circle><circle cx="93.21" cy="31.37" r="2.70"></circle><circle cx="54.84" cy="103.65" r="2.71"></circle><circle cx="34.26" cy="24.25" r="2.72"></circle><circle cx="103.23" cy="69.00" r="2.73"></circle><circle cx="21.96" cy="82.61" r="2.74"></circle><circle cx="72.80" cy="17.53" r="2.75"></circle><circle cx="79.29" cy="100.05" r="2.76"></circle><circle cx="18.63" cy="43.46" r="2.77"></circle><circle cx="101.77" cy="44.22" r="2.78"></circle><circle cx="39.82" cy="99.94" r="2.79"></circle><circle cx="47.88" cy="16.82" r="2.80"></circle><circle cx="98.19" cy="83.70" r="2.80"></circle><circle cx="15.73" cy="68.34" r="2.81"></circle><circle cx="87.07" cy="23.87" r="2.82"></circle><circle cx="64.46" cy="105.02" r="2.83"></circle><circle cx="26.23" cy="29.75" r="2.84"></circle><circle cx="105.44" cy="59.50" r="2.85"></circle><circle cx="26.77" cy="91.13" r="2.86"></circle><circle cx="63.49" cy="14.50" r="2.87"></circle><circle cx="88.23" cy="95.98" r="2.88"></circle><circle cx="14.79" cy="52.52" r="2.89"></circle><circle cx="98.47" cy="34.92" r="2.90"></circle><circle cx="48.55" cy="104.57" r="2.91"></circle><circle cx="38.29" cy="19.31" r="2.92"></circle><circle cx="103.58" cy="75.37" r="2.92"></circle><circle cx="17.39" cy="78.14" r="2.93"></circle><circle cx="79.20" cy="17.76" r="2.94"></circle><circle cx="74.41" cy="104.21" r="2.95"></circle><circle cx="19.43" cy="37.08" r="2.96"></circle><circle cx="105.49" cy="49.47" r="2.97"></circle><circle cx="33.52" cy="98.57" r="2.98"></circle><circle cx="53.46" cy="13.58" r="2.99"></circle><circle cx="96.25" cy="89.87" r="3.00"></circle><circle cx="13.00" cy="62.46" r="3.01"></circle><circle cx="93.06" cy="26.37" r="3.02"></circle><circle cx="58.34" cy="107.23" r="3.03"></circle><circle cx="29.26" cy="23.98" r="3.04"></circle><circle cx="107.09" cy="65.81" r="3.04"></circle><circle cx="21.28" cy="87.58" r="3.05"></circle><circle cx="69.94" cy="13.42" r="3.06"></circle><circle cx="84.18" cy="101.14" r="3.07"></circle><circle cx="14.29" cy="45.97" r="3.08"></circle><circle cx="103.27" cy="39.43" r="3.09"></circle></svg>