<svg xmlns="http://www.w3.org/2000/svg" viewBox="0 0 120 120" fill="#272324"><circle cx="60.00" cy="60.00" r="0.70"></circle><circle cx="57.11" cy="62.65" r="0.72"></circle><circle cx="60.48" cy="54.48" r="0.73"></circle><circle cx="64.13" cy="65.39" r="0.75"></circle><circle cx="52.28" cy="58.63" r="0.76"></circle><circle cx="67.39" cy="55.30" r="0.78"></circle><circle cx="57.51" cy="69.27" r="0.80"></circle><circle cx="55.22" cy="50.80" r="0.81"></circle><circle cx="70.41" cy="63.80" r="0.83"></circle><circle cx="49.13" cy="64.49" r="0.84"></circle><circle cx="65.25" cy="48.77" r="0.86"></circle><circle cx="63.89" cy="72.40" r="0.88"></circle><circle cx="48.25" cy="53.19" r="0.89"></circle><circle cx="73.80" cy="56.97" r="0.91"></circle><circle cx="51.57" cy="72.00" r="0.92"></circle><circle cx="58.05" cy="44.95" r="0.94"></circle><circle cx="71.99" cy="70.10" r="0.96"></circle><circle cx="43.85" cy="60.67" r="0.97"></circle><circle cx="71.79" cy="48.27" r="0.99"></circle><circle cx="59.21" cy="77.07" r="1.00"></circle><circle cx="48.77" cy="46.54" r="1.02"></circle><circle cx="77.80" cy="62.40" r="1.04"></circle><circle cx="44.91" cy="70.50" r="1.05"></circle><circle cx="64.13" cy="41.66" r="1.07"></circle><circle cx="69.54" cy="76.66" r="1.08"></circle><circle cx="41.33" cy="54.04" r="1.10"></circle><circle cx="78.14" cy="51.62" r="1.12"></circle><circle cx="52.14" cy="78.78" r="1.13"></circle><circle cx="52.98" cy="40.48" r="1.15"></circle><circle cx="78.68" cy="69.82" r="1.16"></circle><circle cx="39.24" cy="65.47" r="1.18"></circle><circle cx="71.80" cy="41.65" r="1.20"></circle><circle cx="63.75" cy="81.85" r="1.21"></circle><circle cx="42.20" cy="46.21" r="1.23"></circle><circle cx="82.77" cy="58.12" r="1.24"></circle><circle cx="44.25" cy="77.02" r="1.26"></circle><circle cx="60.12" cy="36.49" r="1.28"></circle><circle cx="76.01" cy="77.66" r="1.29"></circle><circle cx="35.94" cy="57.77" r="1.31"></circle><circle cx="79.50" cy="45.21" r="1.32"></circle><circle cx="55.56" cy="84.39" r="1.34"></circle><circle cx="46.64" cy="38.76" r="1.36"></circle><circle cx="84.49" cy="66.72" r="1.37"></circle><circle cx="37.13" cy="71.73" r="1.39"></circle><circle cx="69.04" cy="35.63" r="1.40"></circle><circle cx="69.91" cy="84.35" r="1.42"></circle><circle cx="35.98" cy="48.61" r="1.44"></circle><circle cx="85.68" cy="52.09" r="1.45"></circle><circle cx="46.27" cy="83.42" r="1.47"></circle><circle cx="54.25" cy="33.18" r="1.48"></circle><circle cx="82.59" cy="76.05" r="1.50"></circle><circle cx="32.23" cy="63.46" r="1.52"></circle><circle cx="78.32" cy="38.48" r="1.53"></circle><circle cx="61.03" cy="88.51" r="1.55"></circle><circle cx="39.79" cy="39.48" r="1.56"></circle><circle cx="89.03" cy="61.49" r="1.58"></circle><circle cx="37.39" cy="78.68" r="1.60"></circle><circle cx="64.10" cy="30.70" r="1.61"></circle><circle cx="76.92" cy="84.59" r="1.63"></circle><circle cx="30.66" cy="53.24" r="1.64"></circle><circle cx="86.42" cy="45.04" r="1.66"></circle><circle cx="50.55" cy="89.11" r="1.68"></circle><circle cx="47.20" cy="31.92" r="1.69"></circle><circle cx="88.63" cy="72.16" r="1.71"></circle><circle cx="30.44" cy="70.46" r="1.72"></circle><circle cx="74.84" cy="32.11" r="1.74"></circle><circle cx="67.96" cy="90.83" r="1.76"></circle><circle cx="33.11" cy="42.51" r="1.77"></circle><circle cx="91.88" cy="54.69" r="1.79"></circle><circle cx="39.93" cy="85.64" r="1.80"></circle><circle cx="57.46" cy="27.31" r="1.82"></circle><circle cx="84.13" cy="82.55" r="1.84"></circle><circle cx="26.75" cy="59.67" r="1.85"></circle><circle cx="84.92" cy="37.63" r="1.87"></circle><circle cx="56.71" cy="93.55" r="1.88"></circle><circle cx="39.62" cy="32.86" r="1.90"></circle><circle cx="93.58" cy="66.29" r="1.92"></circle><circle cx="30.80" cy="78.17" r="1.93"></circle><circle cx="69.32" cy="26.67" r="1.95"></circle><circle cx="75.74" cy="91.07" r="1.96"></circle><circle cx="27.20" cy="47.64" r="1.98"></circle><circle cx="92.74" cy="46.87" r="2.00"></circle><circle cx="44.63" cy="91.99" r="2.01"></circle><circle cx="49.66" cy="25.82" r="2.03"></circle><circle cx="90.89" cy="78.32" r="2.04"></circle><circle cx="24.63" cy="67.40" r="2.06"></circle><circle cx="81.20" cy="30.48" r="2.08"></circle><circle cx="64.33" cy="96.30" r="2.09"></circle><circle cx="32.13" cy="36.02" r="2.11"></circle><circle cx="96.96" cy="58.85" r="2.12"></circle><circle cx="33.38" cy="85.96" r="2.14"></circle><circle cx="62.11" cy="22.67" r="2.16"></circle><circle cx="83.79" cy="89.10" r="2.17"></circle><circle cx="22.60" cy="54.58" r="2.19"></circle><circle cx="91.41" cy="38.62" r="2.20"></circle><circle cx="51.24" cy="97.18" r="2.22"></circle><circle cx="41.25" cy="26.49" r="2.24"></circle><circle cx="96.65" cy="72.10" r="2.25"></circle><circle cx="24.62" cy="75.91" r="2.27"></circle><circle cx="75.42" cy="24.18" r="2.28"></circle><circle cx="72.89" cy="97.01" r="2.30"></circle><circle cx="25.32" cy="41.32" r="2.32"></circle><circle cx="98.38" cy="50.30" r="2.33"></circle><circle cx="38.15" cy="93.24" r="2.35"></circle><circle cx="53.63" cy="20.54" r="2.36"></circle><circle cx="91.50" cy="84.91" r="2.38"></circle><circle cx="19.76" cy="62.92" r="2.40"></circle><circle cx="87.83" cy="30.52" r="2.41"></circle><circle cx="59.39" cy="100.72" r="2.43"></circle><circle cx="32.82" cy="29.42" r="2.44"></circle><circle cx="100.89" cy="64.21" r="2.46"></circle><circle cx="26.86" cy="84.63" r="2.48"></circle><circle cx="67.84" cy="19.27" r="2.49"></circle><circle cx="81.83" cy="95.49" r="2.51"></circle><circle cx="19.76" cy="48.53" r="2.52"></circle><circle cx="97.59" cy="41.19" r="2.54"></circle><circle cx="44.92" cy="99.43" r="2.56"></circle><circle cx="44.42" cy="20.57" r="2.57"></circle><circle cx="98.28" cy="78.63" r="2.59"></circle><circle cx="19.02" cy="72.18" r="2.60"></circle><circle cx="82.09" cy="23.18" r="2.62"></circle><circle cx="68.62" cy="102.24" r="2.64"></circle><circle cx="24.97" cy="34.57" r="2.65"></circle><circle cx="103.19" cy="55.07" r="2.67"></circle><circle cx="31.37" cy="92.94" r="2.68"></circle><circle cx="58.85" cy="16.20" r="2.70"></circle><circle cx="90.56" cy="91.65" r="2.72"></circle><circle cx="15.92" cy="57.29" r="2.73"></circle><circle cx="94.47" cy="32.11" r="2.75"></circle><circle cx="53.40" cy="104.02" r="2.76"></circle><circle cx="35.04" cy="22.94" r="2.78"></circle><circle cx="103.61" cy="70.51" r="2.80"></circle><circle cx="20.60" cy="81.79" r="2.81"></circle><circle cx="74.39" cy="17.15" r="2.83"></circle><circle cx="78.40" cy="101.47" r="2.84"></circle><circle cx="18.27" cy="41.78" r="2.86"></circle><circle cx="103.24" cy="45.19" r="2.88"></circle><circle cx="38.04" cy="100.28" r="2.89"></circle><circle cx="48.94" cy="15.31" r="2.91"></circle><circle cx="98.48" cy="85.58" r="2.92"></circle><circle cx="14.18" cy="67.16" r="2.94"></circle><circle cx="89.05" cy="23.64" r="2.96"></circle><circle cx="63.15" cy="106.60" r="2.97"></circle><circle cx="26.09" cy="27.65" r="2.99"></circle><circle cx="107.02" cy="60.95" r="3.00"></circle><circle cx="24.57" cy="91.17" r="3.02"></circle><circle cx="65.09" cy="12.92" r="3.04"></circle><circle cx="88.15" cy="98.28" r="3.05"></circle><circle cx="13.23" cy="50.75" r="3.07"></circle><circle cx="100.87" cy="35.14" r="3.08"></circle></svg>